<?xml version="1.0" encoding="UTF-8" standalone="no"?>
<!-- Created with Inkscape (http://www.inkscape.org/) -->

<svg
   xmlns:dc="http://purl.org/dc/elements/1.1/"
   xmlns:cc="http://creativecommons.org/ns#"
   xmlns:rdf="http://www.w3.org/1999/02/22-rdf-syntax-ns#"
   xmlns:svg="http://www.w3.org/2000/svg"
   xmlns="http://www.w3.org/2000/svg"
   xmlns:sodipodi="http://sodipodi.sourceforge.net/DTD/sodipodi-0.dtd"
   xmlns:inkscape="http://www.inkscape.org/namespaces/inkscape"
   width="210mm"
   height="297mm"
   id="svg2"
   version="1.1"
   inkscape:version="0.48.4 r9939"
   sodipodi:docname="Novo documento 1">
  <defs
     id="defs4" />
  <sodipodi:namedview
     id="base"
     pagecolor="#ffffff"
     bordercolor="#666666"
     borderopacity="1.0"
     inkscape:pageopacity="0.0"
     inkscape:pageshadow="2"
     inkscape:zoom="0.49497475"
     inkscape:cx="350"
     inkscape:cy="277.56339"
     inkscape:document-units="px"
     inkscape:current-layer="layer1"
     showgrid="false"
     inkscape:snap-grids="true"
     inkscape:window-width="1600"
     inkscape:window-height="876"
     inkscape:window-x="0"
     inkscape:window-y="24"
     inkscape:window-maximized="1" />
  <metadata
     id="metadata7">
    <rdf:RDF>
      <cc:Work
         rdf:about="">
        <dc:format>image/svg+xml</dc:format>
        <dc:type
           rdf:resource="http://purl.org/dc/dcmitype/StillImage" />
        <dc:title></dc:title>
      </cc:Work>
    </rdf:RDF>
  </metadata>
  <g
     inkscape:label="Camada 1"
     inkscape:groupmode="layer"
     id="layer1">
    <rect
       style="fill:#800000"
       id="rect2985"
       width="119.198"
       height="18.182745"
       x="280.82242"
       y="266.4635"
       ry="1.4285715"
       inkscape:export-xdpi="38"
       inkscape:export-ydpi="38" />
    <path
       style="fill:#666666"
       d="m 312.24287,283.96929 c 16.4577,-0.33997 42.82268,-0.33918 58.58885,0.002 15.76616,0.34093 2.30077,0.61908 -29.92309,0.61813 -32.22387,-9.6e-4 -45.12346,-0.27991 -28.66576,-0.61988 z"
       id="path2987"
       inkscape:connector-curvature="0"
       inkscape:export-filename="/home/eulersantana/rect2985.png"
       inkscape:export-xdpi="38"
       inkscape:export-ydpi="38" />
    <path
       style="fill:#666666"
       d="m 281.30963,275.37938 0,-8.08123 58.58884,0 58.58885,0 0,8.08123 0,8.08122 -58.58885,0 -58.58884,0 0,-8.08122 z"
       id="path2989"
       inkscape:connector-curvature="0"
       inkscape:export-filename="/home/eulersantana/rect2985.png"
       inkscape:export-xdpi="38"
       inkscape:export-ydpi="38" />
    <rect
       style="fill:#666666"
       id="rect2991"
       width="38.385796"
       height="103.03556"
       x="321.94083"
       y="266.62903"
       ry="1.4285715"
       inkscape:export-filename="/home/eulersantana/rect2985.png"
       inkscape:export-xdpi="38"
       inkscape:export-ydpi="38" />
    <rect
       style="fill:#666666"
       id="rect2997"
       width="123.23861"
       height="137.38075"
       x="280.82239"
       y="327.07266"
       ry="1.4285715"
       inkscape:export-filename="/home/eulersantana/rect2985.png"
       inkscape:export-xdpi="38"
       inkscape:export-ydpi="38" />
    <path
       sodipodi:type="arc"
       style="fill:#000000"
       id="path2999"
       sodipodi:cx="410.12195"
       sodipodi:cy="357.37723"
       sodipodi:rx="16.162441"
       sodipodi:ry="18.182745"
       d="m 418.20317,373.12395 a 16.162441,18.182745 0 1 1 3.99874,-27.82668"
       sodipodi:start="1.0471976"
       sodipodi:end="5.5565429"
       transform="matrix(1.4291658,0,0,1.7221473,-314.53476,-257.06968)"
       sodipodi:open="true"
       inkscape:export-filename="/home/eulersantana/rect2985.png"
       inkscape:export-xdpi="38"
       inkscape:export-ydpi="38" />
    <path
       sodipodi:type="arc"
       style="fill:#000000"
       id="path2999-5"
       sodipodi:cx="410.12195"
       sodipodi:cy="357.37723"
       sodipodi:rx="16.162441"
       sodipodi:ry="18.182745"
       d="m 418.20317,373.12395 a 16.162441,18.182745 0 1 1 3.99874,-27.82668"
       sodipodi:start="1.0471976"
       sodipodi:end="5.5565429"
       transform="matrix(-1.597828,-0.39746933,-0.38890574,1.5634024,1210.2404,-38.139797)"
       sodipodi:open="true"
       inkscape:export-filename="/home/eulersantana/rect2985.png"
       inkscape:export-xdpi="38"
       inkscape:export-ydpi="38" />
    <path
       sodipodi:type="arc"
       style="fill:#000000"
       id="path2999-3"
       sodipodi:cx="410.12195"
       sodipodi:cy="357.37723"
       sodipodi:rx="16.162441"
       sodipodi:ry="18.182745"
       d="m 418.20317,373.12395 a 16.162441,18.182745 0 1 1 3.99874,-27.82668"
       sodipodi:start="1.0471976"
       sodipodi:end="5.5565429"
       transform="matrix(1.7766458,-0.19025833,0.1833737,1.7123567,-524.87614,-94.10903)"
       sodipodi:open="true"
       inkscape:export-filename="/home/eulersantana/rect2985.png"
       inkscape:export-xdpi="38"
       inkscape:export-ydpi="38" />
    <path
       sodipodi:type="arc"
       style="fill:#000000"
       id="path2999-7"
       sodipodi:cx="410.12195"
       sodipodi:cy="357.37723"
       sodipodi:rx="16.162441"
       sodipodi:ry="18.182745"
       d="m 418.20317,373.12395 a 16.162441,18.182745 0 1 1 3.99874,-27.82668"
       sodipodi:start="1.0471976"
       sodipodi:end="5.5565429"
       transform="matrix(-1.9975923,-0.16212697,-0.13931345,1.7165031,1287.6021,-112.39908)"
       sodipodi:open="true"
       inkscape:transform-center-x="-23.4039"
       inkscape:transform-center-y="13.897797"
       inkscape:export-filename="/home/eulersantana/rect2985.png"
       inkscape:export-xdpi="38"
       inkscape:export-ydpi="38" />
    <path
       sodipodi:type="arc"
       style="fill:#000000"
       id="path3044"
       sodipodi:cx="350.52292"
       sodipodi:cy="400.81378"
       sodipodi:rx="35.355339"
       sodipodi:ry="35.355339"
       d="m 368.20059,431.4324 a 35.355339,35.355339 0 1 1 8.74724,-54.10743"
       sodipodi:start="1.0471976"
       sodipodi:end="5.5565429"
       sodipodi:open="true"
       transform="matrix(-0.22647212,-0.97401765,0.97401765,-0.22647212,34.024629,828.6531)"
       inkscape:export-filename="/home/eulersantana/rect2985.png"
       inkscape:export-xdpi="38"
       inkscape:export-ydpi="38" />
    <path
       style="fill:#ececec"
       d="m 288.60095,439.93136 c 1.33838,-22.38636 1.21837,-23.46024 -2.94807,-26.37853 -3.58686,-2.51233 -4.34325,-5.06288 -4.34325,-14.64534 0,-6.38177 0.77249,-12.46689 1.71664,-13.5225 0.94416,-1.05561 2.84724,-12.22551 4.22906,-24.82199 2.4879,-22.67924 2.46772,-22.95029 -2.06881,-27.7792 l -4.58123,-4.87649 21.56537,0 21.56537,0 0,-22.22336 0,-22.22335 -21.2132,0 -21.2132,0 0,-8.08122 0,-8.08123 58.58884,0 58.58885,0 0,8.08123 0,8.08122 -19.1929,0 -19.19289,0 0,22.22335 0,22.22336 21.42935,0 c 19.39411,0 21.30335,0.32835 20.10267,3.45728 -0.72968,1.90151 -2.32594,13.27193 -3.54725,25.26761 -1.9764,19.4122 -1.85429,22.21504 1.11054,25.49114 4.89302,5.40673 4.56137,23.19309 -0.50074,26.85483 -3.60953,2.611 -3.70795,4.17824 -1.69653,27.01546 1.17441,13.33401 3.12602,24.91159 4.33691,25.72795 1.21088,0.81636 -23.97316,1.49822 -55.96455,1.51523 l -58.16615,0.0309 1.39517,-23.33639 z m 67.32122,-8.9487 c 7.76038,-2.22565 17.25447,-10.43885 21.53231,-18.62729 4.23877,-8.11365 3.62887,-25.56732 -1.16837,-33.43536 -4.53571,-7.4391 -7.01235,-7.74661 -42.24673,-5.24561 -17.75123,1.26002 -18.73524,1.57871 -21.52357,6.97074 -3.70812,7.17072 -3.75667,22.16569 -0.10009,30.91712 3.0315,7.25539 14.48514,17.54436 21.91248,19.6843 6.95951,2.00514 13.98149,1.91933 21.59397,-0.2639 l 0,0 z"
       id="path3046"
       inkscape:connector-curvature="0"
       inkscape:export-filename="/home/eulersantana/rect2985.png"
       inkscape:export-xdpi="38"
       inkscape:export-ydpi="38" />
  </g>
</svg>
